<?xml version="1.0" encoding="iso-8859-1"?>
<!-- Generator: Adobe Illustrator 19.0.0, SVG Export Plug-In . SVG Version: 6.00 Build 0)  -->
<svg width="150" height="150" version="1.1" id="Layer_1" xmlns="http://www.w3.org/2000/svg" xmlns:xlink="http://www.w3.org/1999/xlink" x="0px" y="0px"
	 viewBox="0 0 512 512" style="enable-background:new 0 0 512 512;" xml:space="preserve">
<path style="fill:#FF6465;" d="M56.175,41.053l65.939,431.636c2.663,17.427,17.65,30.3,35.281,30.3h197.211
	c17.63,0,32.618-12.872,35.281-30.3l65.939-431.636H56.175z"/>
<polygon style="opacity:0.1;fill:#171D26;enable-background:new    ;" points="65.292,100.73 446.709,100.73 455.825,41.053 
	56.175,41.053 "/>
<path style="fill:#F2E9DC;" d="M461.944,9.011H50.056c-17.696,0-32.041,14.345-32.041,32.041S32.36,73.095,50.056,73.095h411.887
	c17.696,0,32.041-14.345,32.041-32.041S479.64,9.011,461.944,9.011z"/>
<path style="opacity:0.2;fill:#171D26;enable-background:new    ;" d="M194.206,472.688L133.162,73.095h-11.014
	c-17.696,0-32.041-14.345-32.041-32.041c0-17.697,14.345-32.042,32.041-32.042H50.056c-17.696,0-32.041,14.345-32.041,32.041
	S32.36,73.094,50.056,73.094H61.07l61.045,399.594c2.663,17.427,17.65,30.3,35.281,30.3h72.092
	C211.856,502.989,196.868,490.117,194.206,472.688z"/>
<path d="M414.942,118.833c0-4.978-4.035-9.011-9.011-9.011H106.07c-4.977,0-9.011,4.034-9.011,9.011
	c0,4.978,4.035,9.011,9.011,9.011h299.86C410.907,127.844,414.942,123.811,414.942,118.833z"/>
<path d="M391.571,158.982c0-4.978-4.035-9.011-9.012-9.011H129.441c-4.977,0-9.011,4.034-9.011,9.011s4.035,9.011,9.011,9.011
	h253.117C387.536,167.993,391.571,163.96,391.571,158.982z"/>
<path d="M365.781,412.257c0-4.978-4.035-9.011-9.011-9.011H155.231c-4.977,0-9.011,4.034-9.011,9.011
	c0,4.978,4.035,9.012,9.011,9.012h201.539C361.746,421.269,365.781,417.235,365.781,412.257z"/>
<path d="M170.939,443.394c-4.977,0-9.011,4.034-9.011,9.012c0,4.978,4.035,9.011,9.011,9.011h170.122
	c4.977,0,9.011-4.034,9.011-9.011c0-4.978-4.035-9.012-9.011-9.012H170.939z"/>
<path d="M50.057,18.023h57.303c4.977,0,9.011-4.034,9.011-9.011S112.337,0,107.36,0H50.057C27.419,0,9.003,18.416,9.003,41.053
	s18.416,41.053,41.054,41.053h3.274l59.876,391.944c3.359,21.99,21.944,37.95,44.188,37.95h197.212
	c22.245,0,40.828-15.96,44.188-37.95l11.83-77.436c0.751-4.92-2.628-9.517-7.547-10.269c-4.931-0.751-9.517,2.628-10.27,7.547
	l-11.83,77.436c-2.004,13.124-13.095,22.65-26.371,22.65H157.395c-13.276,0-24.367-9.526-26.371-22.65L71.563,82.105h368.875
	l-41.313,270.43c-0.751,4.92,2.628,9.517,7.547,10.269c4.926,0.75,9.519-2.628,10.269-7.547l41.728-273.152h3.274
	c22.637,0,41.054-18.416,41.054-41.053S484.581,0,461.943,0H149.261c-4.977,0-9.011,4.034-9.011,9.011s4.035,9.011,9.011,9.011
	h312.682c12.699,0,23.031,10.332,23.031,23.03s-10.332,23.03-23.031,23.03H450.93H61.07H50.057
	c-12.699,0-23.031-10.332-23.031-23.03S37.357,18.023,50.057,18.023z"/>
<g>
</g>
<g>
</g>
<g>
</g>
<g>
</g>
<g>
</g>
<g>
</g>
<g>
</g>
<g>
</g>
<g>
</g>
<g>
</g>
<g>
</g>
<g>
</g>
<g>
</g>
<g>
</g>
<g>
</g>
</svg>
