<svg width="152" height="153" viewBox="0 0 152 153" fill="none" xmlns="http://www.w3.org/2000/svg">
<g clip-path="url(#clip0)">
<path d="M76.6364 34.2611L34.7982 22.6059C31.5807 21.7096 29.6991 18.3748 30.5954 15.1573C31.4917 11.9399 34.8266 10.0583 38.044 10.9546L79.8822 22.6098" fill="#FFE582"/>
<path d="M30.595 15.1569C30.1155 16.8784 30.437 18.6299 31.3268 20.027C32.7212 17.8472 35.4207 16.7311 38.0433 17.4618L78.1993 28.6484L79.8815 22.6093L38.0433 10.9541C34.8262 10.0578 31.4913 11.9394 30.595 15.1569Z" fill="#EED05E"/>
<path d="M73.3897 45.9122L25.7259 32.634C22.5085 31.7377 20.6269 28.4028 21.5232 25.1854C22.4194 21.968 25.7543 20.0864 28.9717 20.9827L76.6355 34.2609" fill="#FFE582"/>
<path d="M21.5237 25.1845C21.0442 26.9061 21.3658 28.6575 22.2555 30.0546C23.6499 27.8748 26.3494 26.7588 28.972 27.4894L74.9536 40.2988L76.6358 34.2597L28.972 20.9815C25.7549 20.0855 22.42 21.9671 21.5237 25.1845Z" fill="#EED05E"/>
<path d="M73.3904 45.9111L34.4649 35.0673C31.2475 34.171 27.9129 36.0526 27.0163 39.2701C26.12 42.4875 28.0016 45.8224 31.2191 46.7187L76.5383 59.3323C78.9606 60.0064 79.0216 63.4191 76.6247 64.179L62.4596 68.6701C59.2777 69.6847 57.5206 73.0868 58.5352 76.269C59.5498 79.4509 62.9518 81.208 66.1341 80.1934L106.57 67.1391L131.758 80.9746C133.43 81.8928 135.52 81.0128 136.032 79.1758L149.63 30.3635C150.13 28.5691 148.867 26.765 147.01 26.6204L117.917 24.3587C112.511 20.3997 106.433 17.4499 99.978 15.6518L55.8541 3.3597C52.6366 2.46342 49.302 4.34502 48.4055 7.56246C47.5092 10.7799 49.3908 14.1148 52.6082 15.0111L79.8826 22.609" fill="#FFE582"/>
<path d="M34.4645 41.5758L71.7953 51.7966L73.39 45.9119L34.4645 35.0681C31.2471 34.1718 27.9122 36.0534 27.0159 39.2709C26.5364 40.9925 26.8579 42.7439 27.7477 44.141C29.1424 41.9612 31.8419 40.8451 34.4645 41.5758Z" fill="#EED05E"/>
<path d="M62.4599 75.1788L76.6249 70.6876C79.0218 69.9277 78.9612 66.515 76.5386 65.8409L73.795 65.0771L62.4599 68.6711C59.2779 69.6857 57.5209 73.0877 58.5355 76.27C58.6985 76.7808 58.9286 77.2503 59.2037 77.6821C59.9373 76.5338 61.0601 75.6251 62.4599 75.1788Z" fill="#EED05E"/>
<path d="M48.4036 7.56216C47.9241 9.28373 48.2456 11.0352 49.1354 12.4323C50.5298 10.2525 53.2293 9.13642 55.8519 9.86705L99.9758 22.1591C106.431 23.9573 112.508 26.907 117.915 30.8661L147.008 33.1278C147.649 33.1777 148.217 33.4289 148.669 33.806L149.628 30.3629C150.128 28.5685 148.865 26.7645 147.008 26.6198L117.915 24.3581C112.508 20.3991 106.431 17.4493 99.9758 15.6512L55.8519 3.35911C52.6347 2.46313 49.2999 4.34472 48.4036 7.56216Z" fill="#EED05E"/>
<path d="M131.759 80.9758C133.43 81.894 135.521 81.014 136.032 79.1771L149.63 30.3647C150.13 28.5704 148.867 26.7663 147.01 26.6216L137.991 25.9206L123.922 76.6713L131.759 80.9758Z" fill="#E7C33C"/>
<path d="M58.5964 121.866L15.6705 128.472C12.3694 128.98 10.1053 132.068 10.6132 135.369C11.1211 138.67 14.2089 140.934 17.5101 140.426L60.436 133.82" fill="#FFE582"/>
<path d="M15.6715 128.472C12.3703 128.98 10.1063 132.068 10.6142 135.369C10.7467 136.23 11.0576 137.017 11.4989 137.706C12.4026 136.292 13.8822 135.255 15.6715 134.98L59.3724 128.411L58.5974 121.866L15.6715 128.472Z" fill="#EED05E"/>
<path d="M56.7579 109.911L7.85508 117.436C4.55393 117.944 2.28986 121.032 2.79775 124.333C3.30564 127.634 6.39352 129.898 9.69467 129.391L58.5978 121.865" fill="#FFE582"/>
<path d="M8.01036 117.413C4.88669 117.894 2.53506 120.644 2.73887 123.797C2.80809 124.869 3.15063 125.841 3.68189 126.671C4.58556 125.257 6.06516 124.22 7.85447 123.944L56.7576 116.419C56.7576 116.419 57.057 116.365 57.5974 116.282L56.7576 109.911L8.01036 117.413Z" fill="#EED05E"/>
<path d="M56.7561 109.911L16.8187 116.057C13.5175 116.565 10.43 114.301 9.92177 111C9.41388 107.699 11.6779 104.611 14.9791 104.103L61.4753 96.9589C63.9607 96.577 64.426 93.1957 62.1364 92.1566L48.6047 86.0154C45.5656 84.6302 44.2247 81.0436 45.61 78.0045C46.9952 74.9654 50.5818 73.6246 53.6209 75.0098L92.221 92.7721L118.874 82.0245C120.642 81.3113 122.613 82.4333 122.903 84.3178L130.61 134.4C130.894 136.241 129.425 137.882 127.564 137.805L98.4086 136.597C92.5703 139.886 86.1857 142.094 79.5627 143.113L34.2917 150.08C30.9906 150.588 27.903 148.324 27.3948 145.023C26.8869 141.721 29.151 138.634 32.4521 138.126L60.4356 133.819" fill="#FFE582"/>
<path d="M32.4527 144.633L60.4362 140.326L59.458 133.969L32.4527 138.125C29.1516 138.633 26.8875 141.721 27.3954 145.022C27.5279 145.882 27.8388 146.67 28.2802 147.359C29.1838 145.945 30.6634 144.908 32.4527 144.633Z" fill="#EED05E"/>
<path d="M14.9811 110.61L61.4773 103.465C65.289 102.674 62.6268 96.7576 62.6268 96.7576L14.9811 104.102C11.6799 104.61 9.41584 107.698 9.92373 110.999C10.0562 111.859 10.3671 112.647 10.8085 113.336C11.7121 111.922 13.1917 110.885 14.9811 110.61Z" fill="#EED05E"/>
<path d="M45.6111 78.0035C44.7281 79.9407 44.9565 82.0977 46.0226 83.7678C47.6166 81.2659 50.8453 80.2507 53.622 81.5164L92.2221 99.2787L118.875 88.5311C120.643 87.8179 122.615 88.9399 122.904 90.8244L129.969 136.726C130.482 136.104 130.747 135.275 130.612 134.398L122.905 84.3168C122.615 82.4319 120.644 81.3102 118.875 82.0234L92.2227 92.7711L53.6226 75.0088C50.5829 73.6235 46.9963 74.9644 45.6111 78.0035Z" fill="#EED05E"/>
<path d="M127.567 137.805C129.428 137.882 130.896 136.24 130.613 134.399L122.906 84.3178C122.616 82.433 120.644 81.3113 118.876 82.0245L110.787 85.2863L118.455 137.427L127.567 137.805Z" fill="#E7C33C"/>
<path d="M46.2748 6.96647C45.9039 8.297 45.8841 9.64319 46.1559 10.908L38.6461 8.81584C32.749 7.17325 26.9977 12.5988 28.3676 18.603C23.3244 17.978 18.8129 22.2287 19.1131 27.2907C19.3841 31.8544 22.8163 34.1226 26.8167 35.2372C22.6432 39.6786 24.7753 47.2239 30.631 48.855L75.9503 61.4686C76.244 61.5499 76.2529 61.9705 75.9609 62.0631L61.7926 66.5558C58.5329 67.5949 56.3646 70.4796 56.0712 73.6899L54.549 72.9895C50.4016 71.099 45.4898 72.9353 43.599 77.0828C41.7254 81.1938 43.5952 86.1648 47.6956 88.0337L61.2273 94.1748C61.506 94.3017 61.4495 94.7176 61.1463 94.764L14.6498 101.909C8.64379 102.833 5.62839 110.071 9.24634 114.978C5.16605 115.606 1.48686 117.402 0.651223 121.896C-0.27937 126.898 3.7036 131.706 8.8053 131.68C6.73764 137.477 11.8068 143.547 17.8551 142.616L25.5545 141.431C23.5771 147.205 28.6146 153.197 34.6374 152.271L79.9084 145.304C86.6098 144.272 93.0127 142.098 98.9495 138.838L127.481 140.02C130.674 140.152 133.301 137.235 132.811 134.06L125.104 83.9791C124.606 80.7442 121.102 78.7354 118.052 79.9657L92.2868 90.3554L71.5047 80.7924L106.347 69.544L130.696 82.9189C133.577 84.5012 137.296 82.9255 138.175 79.771L151.773 30.9587C152.634 27.8711 150.384 24.6569 147.188 24.4084L118.718 22.1952C113.211 18.2537 107.111 15.3341 100.58 13.5146L92.5125 11.2671C89.7684 10.5025 88.5739 14.7756 91.3219 15.5415L99.389 17.789C105.609 19.5215 111.404 22.3343 116.613 26.1489C116.946 26.3927 117.34 26.5388 117.752 26.5707L135.312 27.9359L122.638 73.4302L107.645 65.1945C107.109 64.9005 106.476 64.8401 105.895 65.028L65.4671 78.0799C60.8052 79.5663 58.4323 72.2852 63.1376 70.7852L77.3027 66.2937C81.7004 64.899 81.5841 58.4316 77.1409 57.1948L31.8219 44.5818C27.1385 43.2765 29.0322 35.8557 33.8769 37.2048L72.8026 48.0486C75.5468 48.813 76.7412 44.5401 73.9932 43.7743L35.0678 32.9305L35.0675 32.9305L26.3295 30.4963C21.6458 29.1916 23.5401 21.7696 28.3844 23.1196L76.0482 36.3979C78.9 37.1921 79.9436 32.8769 77.2388 32.1235L35.4006 20.4684C30.6449 19.1432 32.6996 11.7664 37.4555 13.0914L52.016 17.1477C52.0172 17.148 52.0184 17.1486 52.0196 17.1489L79.294 24.7468C82.0376 25.5109 83.2415 21.2407 80.4846 20.4725L53.2061 12.8733C48.4549 11.5434 50.5122 4.17352 55.2654 5.49782L78.0111 11.8345C80.7553 12.5988 81.95 8.32599 79.2017 7.56016L56.456 1.22348C52.0649 -0.00114666 47.4977 2.57588 46.2748 6.96647ZM139.82 28.2858L146.844 28.8319C147.305 28.8676 147.624 29.3223 147.499 29.7675L133.901 78.5798C133.774 79.036 133.247 79.2572 132.833 79.0294L126.633 75.6239L139.82 28.2858ZM93.0586 94.8282L108.924 88.4306L110.029 95.6154C110.461 98.4249 114.85 97.7605 114.415 94.9406L113.15 86.7262L119.711 84.0806C120.15 83.9034 120.647 84.1862 120.718 84.6538L128.426 134.735C128.497 135.192 128.126 135.606 127.665 135.587L120.625 135.295L116.509 108.548C116.076 105.732 111.688 106.403 112.124 109.222L116.107 135.108L98.5093 134.379C98.097 134.362 97.6882 134.46 97.3285 134.662C91.7035 137.831 85.6156 139.936 79.2343 140.918L33.9624 147.885C29.0799 148.637 27.9138 141.07 32.796 140.317L60.781 136.01C63.4695 135.597 63.1415 131.157 60.1062 131.625L32.1228 135.931C32.1216 135.932 32.1207 135.932 32.1195 135.932L17.18 138.231C12.3005 138.982 11.1359 131.413 16.0152 130.662L58.9414 124.056C61.6305 123.643 61.3007 119.203 58.2666 119.671L9.36348 127.197C4.48008 127.948 3.31551 120.38 8.19861 119.628L57.1018 112.102C59.9181 111.669 59.2463 107.283 56.427 107.717L16.4893 113.863C11.6062 114.614 10.4411 107.045 15.3242 106.294L61.8204 99.1499C66.3811 98.4488 67.2676 92.0436 63.0613 90.1344L49.5328 83.9948C45.0458 81.9502 48.1975 74.9705 52.7014 77.0236C54.1645 77.6969 55.8925 78.8996 57.5058 79.133C59.1709 81.5367 62.023 82.9033 64.9663 82.6672L91.3018 94.7856C91.8564 95.0415 92.4921 95.0566 93.0586 94.8282Z" fill="black"/>
</g>
<defs>
<clipPath id="clip0">
<rect width="151.448" height="151.448" fill="white" transform="translate(0.505859 152.368) rotate(-90)"/>
</clipPath>
</defs>
</svg>
