<svg width="200" height="150" viewBox="0 0 183 183" fill="none" xmlns="http://www.w3.org/2000/svg">
<path d="M130.908 106.659H179.618V179.724H130.908V106.659Z" fill="#7EB457"/>
<path d="M130.908 158.414H179.618V179.724H130.908V158.414Z" fill="#69A340"/>
<path d="M75.4282 78.3386C74.3643 79.1896 73.4919 80.2555 72.8679 81.4666C72.2439 82.6777 71.8824 84.0068 71.807 85.3672C71.7315 86.7275 71.9439 88.0884 72.4302 89.3611C72.9165 90.6337 73.6657 91.7895 74.6291 92.7529L88.2873 106.41H12.178C9.75578 106.41 7.43274 107.373 5.71995 109.085C4.00716 110.798 3.04492 113.121 3.04492 115.543C3.04492 117.966 4.00716 120.289 5.71995 122.002C7.43274 123.714 9.75578 124.677 12.178 124.677H54.7992V179.475H130.908V106.41H115.687L88.3295 79.0533C86.6438 77.3676 84.3957 76.3626 82.0154 76.2308C79.6351 76.0989 77.2898 76.8494 75.4282 78.3386Z" fill="#FEB784"/>
<path d="M115.686 106.41L88.329 79.0532C88.3157 79.0399 88.3001 79.0311 88.2868 79.0182C86.4654 77.2071 83.9992 76.1937 81.4307 76.201C78.8622 76.2082 76.4018 77.2355 74.5907 79.0568C72.7796 80.8782 71.7662 83.3443 71.7735 85.9128C71.7807 88.4813 72.808 90.9418 74.6293 92.7529L88.2868 106.41V109.704C88.2868 119.393 92.1357 128.685 98.9868 135.536C105.838 142.387 115.13 146.236 124.819 146.236H130.908V106.41H115.686Z" fill="#FEC093"/>
<path d="M73.0653 124.926H54.7991C49.755 124.926 45.666 129.015 45.666 134.059C45.666 139.103 49.755 143.192 54.7991 143.192H73.0653C78.1094 143.192 82.1984 139.103 82.1984 134.059C82.1984 129.015 78.1094 124.926 73.0653 124.926Z" fill="#FEC093"/>
<path d="M73.0653 143.192H54.7991C49.755 143.192 45.666 147.281 45.666 152.325C45.666 157.369 49.755 161.458 54.7991 161.458H73.0653C78.1094 161.458 82.1984 157.369 82.1984 152.325C82.1984 147.281 78.1094 143.192 73.0653 143.192Z" fill="#FEC093"/>
<path d="M73.0653 161.458H54.7991C49.755 161.458 45.666 165.547 45.666 170.591C45.666 175.635 49.755 179.724 54.7991 179.724H73.0653C78.1094 179.724 82.1984 175.635 82.1984 170.591C82.1984 165.547 78.1094 161.458 73.0653 161.458Z" fill="#FEC093"/>
<path d="M79.1541 41.2055C79.1943 46.6731 78.0471 52.0842 75.7918 57.0652C73.5366 62.0461 70.227 66.4781 66.0917 70.0551C61.9563 73.6322 57.0939 76.2689 51.84 77.7833C46.5862 79.2976 41.0663 79.6535 35.6615 78.8263L12.178 112.748L22.4223 74.3397C16.5895 71.0516 11.7276 66.2824 8.32789 60.514C4.92815 54.7455 3.1109 48.182 3.05971 41.4864C3.00851 34.7908 4.72517 28.2003 8.03631 22.3805C11.3474 16.5607 16.1358 11.7177 21.9177 8.34085C27.6995 4.96395 34.2702 3.17268 40.9659 3.14796C47.6617 3.12325 54.2454 4.86597 60.052 8.2001C65.8587 11.5342 70.6826 16.3417 74.0366 22.1369C77.3906 27.9321 79.1559 34.5097 79.1541 41.2055Z" fill="#4DB7E5"/>
<path d="M149.174 170.591C154.218 170.591 158.307 166.502 158.307 161.458C158.307 156.414 154.218 152.325 149.174 152.325C144.13 152.325 140.041 156.414 140.041 161.458C140.041 166.502 144.13 170.591 149.174 170.591Z" fill="#E0E0DE"/>
<path d="M79.154 41.2053C79.1606 48.1858 77.2421 55.0329 73.6094 60.9937H38.055C32.8068 60.9937 27.7735 58.9088 24.0625 55.1978C20.3514 51.4867 18.2666 46.4535 18.2666 41.2053C18.2666 35.9571 20.3514 30.9238 24.0625 27.2128C27.7735 23.5017 32.8068 21.4169 38.055 21.4169H73.6094C77.2475 27.3753 79.1664 34.224 79.154 41.2053Z" fill="#FEC093"/>
<path d="M77.8677 51.0391C76.9353 54.5453 75.501 57.8983 73.6094 60.9942H38.055C35.037 60.9925 32.0594 60.3009 29.3496 58.9723C26.6399 57.6437 24.2697 55.7132 22.4202 53.3284C20.5707 50.9436 19.2909 48.1675 18.6785 45.2123C18.0661 42.2572 18.1374 39.2011 18.8869 36.2777C20.7238 40.6517 23.8113 44.3859 27.7622 47.0119C31.7131 49.638 36.3515 51.0389 41.0955 51.0391H77.8677Z" fill="#FEB784"/>
<path d="M179.618 103.615H116.947L90.4689 77.1374C88.0776 74.7683 84.8453 73.4427 81.479 73.4505C78.1128 73.4584 74.8867 74.7991 72.5064 77.1793C70.1261 79.5596 68.7854 82.7857 68.7776 86.1519C68.7697 89.5182 70.0954 92.7505 72.4645 95.1419L80.9374 103.615H24.3551V109.704H85.3015C85.5899 118.494 88.5645 126.984 93.8248 134.032C99.085 141.08 106.378 146.347 114.723 149.125L116.649 143.348C109.273 140.897 102.856 136.184 98.3113 129.878C93.7663 123.572 91.324 115.995 91.3313 108.222V106.659H91.3027C91.3078 106.261 91.2341 105.866 91.0859 105.497C90.9378 105.128 90.718 104.791 90.4393 104.507L76.7693 90.8371C76.1076 90.1819 75.5938 89.3927 75.2623 88.5225C74.9308 87.6523 74.7894 86.7212 74.8475 85.7918C74.9194 84.5134 75.3589 83.2829 76.1133 82.2482C76.8677 81.2136 77.9048 80.4188 79.1 79.9594C80.2953 79.5 81.5977 79.3956 82.8509 79.6586C84.104 79.9216 85.2546 80.541 86.1642 81.4422L113.534 108.812C114.105 109.383 114.879 109.704 115.686 109.704H127.864V176.68H83.5483C84.9997 174.256 85.5435 171.395 85.0831 168.608C84.6227 165.82 83.1878 163.287 81.034 161.458C82.3537 160.33 83.4132 158.93 84.1397 157.353C84.8662 155.776 85.2424 154.061 85.2424 152.325C85.2424 150.589 84.8662 148.874 84.1397 147.297C83.4132 145.72 82.3537 144.32 81.034 143.192C82.9118 141.573 84.2483 139.418 84.8635 137.016C85.4787 134.615 85.3429 132.082 84.4746 129.76C83.6062 127.438 82.047 125.438 80.007 124.029C77.967 122.62 75.5442 121.871 73.065 121.881H12.1776C10.784 121.883 9.43214 121.406 8.34819 120.53C7.26423 119.654 6.514 118.433 6.22306 117.07C5.93211 115.707 6.11811 114.285 6.74992 113.043C7.38173 111.801 8.42101 110.814 9.69383 110.246L9.23717 111.964C9.05199 112.656 9.11729 113.392 9.42156 114.041C9.72583 114.691 10.2495 115.212 10.9004 115.513C11.5512 115.814 12.2874 115.875 12.9793 115.687C13.6711 115.498 14.2741 115.071 14.682 114.482L37.1148 82.0785C38.4379 82.2258 39.7679 82.3013 41.0992 82.3045C51.0003 82.3173 60.5741 78.7599 68.0645 72.2849C75.555 65.8099 80.4598 56.8514 81.8794 47.0525C83.299 37.2537 81.1381 27.2715 75.7932 18.937C70.4482 10.6025 62.2776 4.47445 52.7799 1.67688C43.2822 -1.12069 33.0943 -0.400207 24.0848 3.70618C15.0754 7.81256 7.8485 15.0295 3.72971 24.0333C-0.389072 33.0371 -1.12358 43.224 1.66091 52.7255C4.4454 62.227 10.5622 70.4061 18.8893 75.7625L11.4421 103.691C8.29493 103.891 5.34857 105.306 3.22546 107.637C1.10236 109.969 -0.0311959 113.035 0.0643023 116.186C0.1598 119.338 1.47687 122.33 3.73724 124.529C5.99761 126.728 9.02423 127.962 12.1776 127.97H44.3155C42.8642 130.394 42.3203 133.255 42.7808 136.042C43.2412 138.83 44.676 141.363 46.8298 143.192C45.5102 144.32 44.4506 145.72 43.7241 147.297C42.9976 148.874 42.6214 150.589 42.6214 152.325C42.6214 154.061 42.9976 155.776 43.7241 157.353C44.4506 158.93 45.5102 160.33 46.8298 161.458C44.952 163.077 43.6155 165.232 43.0004 167.634C42.3852 170.035 42.5209 172.568 43.3893 174.89C44.2576 177.212 45.8168 179.212 47.8569 180.621C49.8969 182.03 52.3197 182.779 54.7988 182.769H179.618C180.425 182.769 181.2 182.448 181.771 181.877C182.342 181.306 182.662 180.532 182.662 179.724V106.659C182.662 105.852 182.342 105.078 181.771 104.507C181.2 103.936 180.425 103.615 179.618 103.615ZM71.8355 57.9496H38.0548C33.614 57.9496 29.3551 56.1855 26.215 53.0453C23.0749 49.9052 21.3108 45.6463 21.3108 41.2055C21.3108 36.7647 23.0749 32.5058 26.215 29.3657C29.3551 26.2256 33.614 24.4615 38.0548 24.4615H71.8355C74.6398 29.5969 76.1094 35.3543 76.1094 41.2055C76.1094 47.0567 74.6398 52.8142 71.8355 57.9496ZM6.08891 41.2055C6.08163 34.061 8.2627 27.0857 12.3387 21.218C16.4147 15.3503 22.19 10.8717 28.8877 8.38477C35.5854 5.89786 42.8841 5.52195 49.8019 7.30761C56.7196 9.09328 62.9245 12.9548 67.5817 18.3728H38.0548C31.9992 18.3728 26.1916 20.7783 21.9096 25.0603C17.6276 29.3423 15.222 35.1499 15.222 41.2055C15.222 47.2612 17.6276 53.0688 21.9096 57.3507C26.1916 61.6327 31.9992 64.0383 38.0548 64.0383H67.5817C63.7812 68.5335 58.8897 71.9771 53.3761 74.0391C47.8626 76.1011 41.9118 76.7124 36.0942 75.8143C35.5342 75.7333 34.9627 75.8102 34.444 76.0364C33.9253 76.2626 33.4801 76.629 33.1583 77.0945L19.6219 96.6477L25.3617 75.1247C25.5352 74.4731 25.4877 73.7823 25.2265 73.1605C24.9653 72.5388 24.5052 72.0213 23.9183 71.6892C18.5168 68.6379 14.0209 64.2091 10.8888 58.854C7.75672 53.499 6.10049 47.4092 6.08891 41.2055ZM48.7101 134.059C48.7117 132.444 49.3537 130.897 50.4952 129.755C51.6367 128.614 53.1845 127.972 54.7988 127.97H73.065C74.6799 127.97 76.2286 128.612 77.3704 129.753C78.5123 130.895 79.1538 132.444 79.1538 134.059C79.1538 135.674 78.5123 137.222 77.3704 138.364C76.2286 139.506 74.6799 140.148 73.065 140.148H54.7988C53.1845 140.146 51.6367 139.504 50.4952 138.362C49.3537 137.221 48.7117 135.673 48.7101 134.059ZM48.7101 152.325C48.7117 150.711 49.3537 149.163 50.4952 148.021C51.6367 146.88 53.1845 146.238 54.7988 146.236H73.065C74.6799 146.236 76.2286 146.878 77.3704 148.02C78.5123 149.161 79.1538 150.71 79.1538 152.325C79.1538 153.94 78.5123 155.489 77.3704 156.63C76.2286 157.772 74.6799 158.414 73.065 158.414H54.7988C53.1845 158.412 51.6367 157.77 50.4952 156.629C49.3537 155.487 48.7117 153.939 48.7101 152.325ZM54.7988 176.68C53.184 176.68 51.6353 176.038 50.4934 174.897C49.3516 173.755 48.7101 172.206 48.7101 170.591C48.7101 168.976 49.3516 167.428 50.4934 166.286C51.6353 165.144 53.184 164.502 54.7988 164.502H73.065C74.6799 164.502 76.2286 165.144 77.3704 166.286C78.5123 167.428 79.1538 168.976 79.1538 170.591C79.1538 172.206 78.5123 173.755 77.3704 174.897C76.2286 176.038 74.6799 176.68 73.065 176.68H54.7988ZM176.574 176.68H133.952V109.704H176.574V176.68Z" fill="black"/>
<path d="M37.415 46.6633L43.5027 40.5756L47.8069 44.8798L41.7192 50.9675L37.415 46.6633Z" fill="black"/>
<path d="M27.3994 36.6388H33.4882V42.7275H27.3994V36.6388Z" fill="black"/>
<path d="M51.7549 45.7721H57.8436V51.8608H51.7549V45.7721Z" fill="black"/>
<path d="M43.5039 32.7045L47.8081 28.4003L53.8958 34.488L49.5916 38.7922L43.5039 32.7045Z" fill="black"/>
<path d="M149.174 170.591C150.98 170.591 152.746 170.056 154.248 169.052C155.75 168.048 156.921 166.622 157.612 164.953C158.303 163.284 158.484 161.448 158.132 159.676C157.779 157.905 156.909 156.277 155.632 155C154.355 153.723 152.728 152.853 150.956 152.5C149.184 152.148 147.348 152.329 145.679 153.02C144.01 153.711 142.584 154.882 141.58 156.384C140.577 157.886 140.041 159.652 140.041 161.458C140.044 163.879 141.007 166.201 142.719 167.913C144.431 169.625 146.753 170.588 149.174 170.591ZM149.174 158.414C149.776 158.414 150.365 158.592 150.865 158.927C151.366 159.261 151.756 159.737 151.987 160.293C152.217 160.849 152.277 161.461 152.16 162.052C152.043 162.643 151.753 163.185 151.327 163.611C150.901 164.037 150.359 164.326 149.768 164.444C149.178 164.561 148.565 164.501 148.009 164.271C147.453 164.04 146.977 163.65 146.643 163.149C146.308 162.649 146.13 162.06 146.13 161.458C146.131 160.651 146.452 159.877 147.023 159.307C147.593 158.736 148.367 158.415 149.174 158.414Z" fill="black"/>
</svg>
