<svg width="71" height="71" viewBox="0 0 71 71" fill="none" xmlns="http://www.w3.org/2000/svg">
<path d="M35.4586 65.0056C19.1395 65.0056 5.91016 51.7763 5.91016 35.4571C5.91016 19.1379 19.1395 5.90865 35.4586 5.90865C51.7778 5.90865 65.0071 19.1379 65.0071 35.4571C64.9892 51.7689 51.7704 64.9877 35.4586 65.0056ZM11.8199 35.9654C11.9597 48.9703 22.5788 59.4196 35.5843 59.35C48.5899 59.2798 59.096 48.717 59.096 35.7112C59.096 22.7055 48.5899 12.1427 35.5843 12.0725C22.5788 12.0029 11.9597 22.4521 11.8199 35.4571V35.9654ZM41.3683 50.2314H32.5038V38.412H29.5489V32.5023H38.4135V44.3217H41.3683V50.2314ZM38.4135 26.5926H32.5038V20.6829H38.4135V26.5926Z" fill="#373737"/>
</svg>
