<svg height="140" viewBox="0 0 60 60" width="150" xmlns="http://www.w3.org/2000/svg"><g id="Page-1" fill="none" fill-rule="evenodd"><g id="038---Landfill-This-Way" fill-rule="nonzero"><path id="Shape" d="m45.6 35h-42.6c-1.1045695 0-2-.8954305-2-2v-26c0-1.1045695.8954305-2 2-2h42.6c.8699933-.00003288 1.6971544.37760793 2.267 1.035l10.4 12c.9774845 1.1276573.9774845 2.8023427 0 3.93l-10.4 12c-.5698456.6573921-1.3970067 1.0350329-2.267 1.035z" fill="#a4c400"/><path id="Shape" d="m58.267 18.035-10.4-12c-.5698456-.65739207-1.3970067-1.03503288-2.267-1.035h-3c.8699933-.00003288 1.6971544.37760793 2.267 1.035l10.4 12c.9774845 1.1276573.9774845 2.8023427 0 3.93l-10.4 12c-.5698456.6573921-1.3970067 1.0350329-2.267 1.035h3c.8699933.0000329 1.6971544-.3776079 2.267-1.035l10.4-12c.9774845-1.1276573.9774845-2.8023427 0-3.93z" fill="#90ac00"/><path id="Shape" d="m20 35h12v23c0 .5522847-.4477153 1-1 1h-10c-.5522847 0-1-.4477153-1-1z" fill="#a0522d"/><path id="Shape" d="m29 35v23c0 .5522847-.4477153 1-1 1h3c.5522847 0 1-.4477153 1-1v-23z" fill="#783e22"/><path id="Shape" d="m44.01 28.48c.0017617.5074474-.0689521 1.012546-.21 1.5l-34.58.04c-.14104794-.487454-.21176175-.9925526-.21-1.5-.01281905-2.3431161 1.4726788-4.4324749 3.69-5.19.5778402-.2055739 1.1866814-.3104298 1.8-.31.2 0 .4.01.6.02.4628012-2.340257 2.5144221-4.0276105 4.9-4.03.3429124.0008747.6847857.0377433 1.02.11.0565252-.7688455.2709913-1.5177748.63-2.2 1.1875234-2.2206368 3.7314976-3.3511216 6.1755006-2.7442532 2.4440029.6068684 4.1636722 2.7960549 4.1744994 5.3142532.0002655.1737733-.009752.3474101-.03.52 2.0328108.1775269 3.8018685 1.4620166 4.6 3.34.613824-.2453765 1.2689488-.3709703 1.93-.37 3.0387327.0010954 5.5033847 2.4612743 5.51 5.5z" fill="#a0522d"/><path id="Shape" d="m43 18c-.2651948-.0000566-.5195073-.1054506-.707-.293l-1-1c-.3789722-.3923789-.3735524-1.0160848.0121814-1.4018186s1.0094397-.3911536 1.4018186-.0121814l.293.293.293-.293c.3923789-.3789722 1.0160848-.3735524 1.4018186.0121814s.3911536 1.0094397.0121814 1.4018186l-1 1c-.1874927.1875494-.4418052.2929434-.707.293z" fill="#3f51b5"/><path id="Shape" d="m37 14c-.2651948-.0000566-.5195073-.1054506-.707-.293l-1-1c-.3789722-.3923789-.3735524-1.0160848.0121814-1.4018186s1.0094397-.3911536 1.4018186-.0121814l.293.293.293-.293c.3923789-.3789722 1.0160848-.3735524 1.4018186.0121814s.3911536 1.0094397.0121814 1.4018186l-1 1c-.1874927.1875494-.4418052.2929434-.707.293z" fill="#3f51b5"/><path id="Shape" d="m21.65 16.92c-.3590087.6822252-.5734748 1.4311545-.63 2.2-.3352143-.0722567-.6770876-.1091253-1.02-.11-2.3855779.0023895-4.4371988 1.689743-4.9 4.03-.2-.01-.4-.02-.6-.02-.6133186-.0004298-1.2221598.1044261-1.8.31-1.1045605-1.1696484-1.7137508-2.7212918-1.7-4.33-.1315983-3.1732764 2.3272765-5.8556853 5.5-6 2.3835261.0561048 4.4611267 1.6375018 5.15 3.92z" fill="#ffdc00"/><path id="Shape" d="m15 9h3c.5522847 0 1 .44771525 1 1v.5c0 1.3807119-1.1192881 2.5-2.5 2.5s-2.5-1.1192881-2.5-2.5v-.5c0-.55228475.4477153-1 1-1z" fill="#ffeb3a"/><path id="Shape" d="m29 24c-.3668799.0006015-.7046317-.1997467-.88-.522-.2141759-.299875-.5599945-.4778494-.9285-.4778494s-.7143241.1779744-.9285.4778494c-.2639921.4854583-.8715417.6649921-1.357.401s-.6649921-.8715417-.401-1.357c.5658343-.9441624 1.5857679-1.521987 2.6865-1.521987s2.1206657.5778246 2.6865 1.521987c.1685905.3097972.1615164.6854959-.0186168.988727-.1801332.303231-.5066836.4891461-.8593832.489273z" fill="#783e22"/><path id="Shape" d="m21.809 27c-.3668799.0006015-.7046317-.1997467-.88-.522-.2143946-.2998815-.560362-.4778291-.929-.4778291s-.7146054.1779476-.929.4778291c-.2639921.4854583-.8715417.6649921-1.357.401s-.6649921-.8715417-.401-1.357c.5660971-.9441254 1.5861645-1.5218762 2.687-1.5218762s2.1209029.5777508 2.687 1.5218762c.1685905.3097972.1615164.6854959-.0186168.988727-.1801332.303231-.5066836.4891461-.8593832.489273z" fill="#783e22"/><path id="Shape" d="m21 1h10c.5522847 0 1 .44771525 1 1v3h-12v-3c0-.55228475.4477153-1 1-1z" fill="#a0522d"/><path id="Shape" d="m31 1h-3c.5522847 0 1 .44771525 1 1v3h3v-3c0-.55228475-.4477153-1-1-1z" fill="#783e22"/><g fill="#000"><path id="Shape" d="m6.011 31.027 40-.054c.5522847 0 1-.4477153 1-1s-.4477153-1-1-1h-1.036c.012-.166.034-.331.034-.5-.0049657-3.5863357-2.9136609-6.4910034-6.5-6.491-.4809939-.0003957-.9604509.054294-1.429.163-.9045843-1.506923-2.3813468-2.5828345-4.093-2.982-.175782-3.4541794-3.028351-6.1642738-6.487-6.163h-.01c-1.764854.0077272-3.4499806.735962-4.665 2.016-.6370464-1.0033486-1.5323473-1.8167875-2.592-2.355.4937993-.6122491.7643218-1.3744381.767-2.161v-.5c0-1.1045695-.8954305-2-2-2h-3c-1.1045695 0-2 .8954305-2 2v.5c.0033137.7853696.273413 1.546302.766 2.158-2.3486102 1.237026-3.80392783 3.6878024-3.766 6.342-.00805815 1.4037472.3887917 2.7800487 1.143 3.964-1.94560132 1.1777359-3.13414714 3.2867031-3.134 5.561 0 .169.022.333.035.5h-2.034c-.55228475 0-1 .4477153-1 1s.44771525 1 1 1zm8.989-20.527v-.5h3v.5c0 .8284271-.6715729 1.5-1.5 1.5s-1.5-.6715729-1.5-1.5zm-3 8.5c-.1277633-2.6196938 1.8813681-4.8520619 4.5-5 1.8126976.0538726 3.4143876 1.1945537 4.058 2.89-.1625925.3608077-.2908259.7361332-.383 1.121h-.18c-2.5410874.0082325-4.8023891 1.6137247-5.648 4.01-.4326462.0096833-.8631896.0632918-1.285.16-.6885237-.9176704-1.0611349-2.0337497-1.062-3.181zm-1.991 9.522c-.0033171-2.4841127 2.00689-4.501034 4.491-4.506.168 0 .3346667.008.5.024.5115253.049982.9776438-.2959316 1.078-.8.3670437-1.8761229 2.0103109-3.230289 3.922-3.232.271592.0014314.5423285.0305825.808.087.2826193.0584124.5766944-.008121.8066454-.1825005.229951-.1743796.3733545-.4396008.3933546-.7274995.1675858-2.3534446 2.122604-4.1789134 4.482-4.185h.01c1.1938811-.0013288 2.3392459.4723503 3.1834478 1.3165522s1.317881 1.9895667 1.3165522 3.1834478c.0008718.1319957-.0064758.2639175-.022.395-.0324462.2693329.0459238.5402907.2171331.7507197.1712092.210429.4205643.3422699.6908669.3652803 1.6656952.1404564 3.1168377 1.1912838 3.77 2.73.2112097.4957559.7772604.7350007 1.28.541.5004005-.1958054 1.0326601-.297511 1.57-.3h.007c2.4852814 0 4.5 2.0147186 4.5 4.5-.0018636.1671441-.0128801.3340608-.033.5l-32.932.045c-.0228155-.167431-.0358377-.3360512-.039-.505z"/><path id="Shape" d="m3 36h16v22c0 1.1045695.8954305 2 2 2h10c1.1045695 0 2-.8954305 2-2v-22h12.6c1.1601074.0001405 2.2631296-.5033893 3.023-1.38l10.4-12c1.2951792-1.506568 1.2951792-3.733432 0-5.24l-10.4-12c-.7598704-.8766107-1.8628926-1.38014051-3.023-1.38h-12.6v-2c0-1.1045695-.8954305-2-2-2h-10c-1.1045695 0-2 .8954305-2 2v2h-16c-1.65685425 0-3 1.34314575-3 3v26c0 1.6568542 1.34314575 3 3 3zm28 22h-2v-10c0-.5522847-.4477153-1-1-1s-1 .4477153-1 1v10h-6v-22h2v11c0 .5522847.4477153 1 1 1s1-.4477153 1-1v-11h6zm-10-56h10v2h-10zm-19 5c0-.55228475.44771525-1 1-1h42.6c.5798792.00007474 1.1311791.25182655 1.511.69l10.4 12c.6469528.75352.6469528 1.86648 0 2.62l-10.4 12c-.3798209.4381735-.9311208.6899253-1.511.69h-42.6c-.55228475 0-1-.4477153-1-1z"/><path id="Shape" d="m28 45c.5522847 0 1-.4477153 1-1v-5c0-.5522847-.4477153-1-1-1s-1 .4477153-1 1v5c0 .5522847.4477153 1 1 1z"/></g></g></g></svg>